<?xml version="1.0" encoding="UTF-8" standalone="no"?>
<!-- Generator: Adobe Illustrator 19.0.0, SVG Export Plug-In . SVG Version: 6.00 Build 0)  -->

<svg
   xmlns:dc="http://purl.org/dc/elements/1.1/"
   xmlns:cc="http://creativecommons.org/ns#"
   xmlns:rdf="http://www.w3.org/1999/02/22-rdf-syntax-ns#"
   xmlns:svg="http://www.w3.org/2000/svg"
   xmlns="http://www.w3.org/2000/svg"
   xmlns:sodipodi="http://sodipodi.sourceforge.net/DTD/sodipodi-0.dtd"
   xmlns:inkscape="http://www.inkscape.org/namespaces/inkscape"
   version="1.1"
   id="Capa_1"
   x="0px"
   y="0px"
   viewBox="0 0 477.867 477.867"
   style="enable-background:new 0 0 477.867 477.867;"
   xml:space="preserve"
   sodipodi:docname="refresh.svg"
   inkscape:version="0.92.4 (5da689c313, 2019-01-14)"><metadata
   id="metadata49"><rdf:RDF><cc:Work
       rdf:about=""><dc:format>image/svg+xml</dc:format><dc:type
         rdf:resource="http://purl.org/dc/dcmitype/StillImage" /></cc:Work></rdf:RDF></metadata><defs
   id="defs47" /><sodipodi:namedview
   pagecolor="#ffffff"
   bordercolor="#666666"
   borderopacity="1"
   objecttolerance="10"
   gridtolerance="10"
   guidetolerance="10"
   inkscape:pageopacity="0"
   inkscape:pageshadow="2"
   inkscape:window-width="1920"
   inkscape:window-height="1013"
   id="namedview45"
   showgrid="false"
   inkscape:zoom="0.49386126"
   inkscape:cx="-99.218151"
   inkscape:cy="238.9335"
   inkscape:window-x="-9"
   inkscape:window-y="-9"
   inkscape:window-maximized="1"
   inkscape:current-layer="Capa_1" />
<g
   id="g6"
   style="fill:#707070;fill-opacity:1;stroke:#707070;stroke-width:20;stroke-miterlimit:4;stroke-dasharray:none;stroke-opacity:1"
   transform="matrix(0.95633554,0,0,0.95633554,10.43286,10.432925)">
	<g
   id="g4"
   style="fill:#707070;fill-opacity:1;stroke:#707070;stroke-width:20;stroke-miterlimit:4;stroke-dasharray:none;stroke-opacity:1">
		<path
   d="m 409.6,0 c -9.426,0 -17.067,7.641 -17.067,17.067 V 79.411 C 304.667,-5.656 164.478,-3.386 79.411,84.479 39.321,125.888 16.956,181.297 17.067,238.933 17.067,248.359 24.708,256 34.134,256 43.56,256 51.2,248.359 51.2,238.933 51.221,135.251 135.288,51.216 238.971,51.237 c 52.657,0.01 102.888,22.135 138.442,60.976 l -75.605,25.207 c -8.954,2.979 -13.799,12.652 -10.82,21.606 2.979,8.954 12.652,13.799 21.606,10.82 l 102.4,-34.133 c 6.99,-2.328 11.697,-8.88 11.674,-16.247 V 17.066 C 426.667,7.641 419.026,0 409.6,0 Z"
   id="path2"
   style="fill:#707070;fill-opacity:1;stroke:#707070;stroke-width:20;stroke-miterlimit:4;stroke-dasharray:none;stroke-opacity:1"
   inkscape:connector-curvature="0" />
	</g>
</g>
<g
   id="g12"
   style="fill:#707070;fill-opacity:1;stroke:#707070;stroke-width:20;stroke-miterlimit:4;stroke-dasharray:none;stroke-opacity:1"
   transform="matrix(0.95633554,0,0,0.95633554,10.43286,10.432925)">
	<g
   id="g10"
   style="fill:#707070;fill-opacity:1;stroke:#707070;stroke-width:20;stroke-miterlimit:4;stroke-dasharray:none;stroke-opacity:1">
		<path
   d="m 443.733,221.867 c -9.426,0 -17.067,7.641 -17.067,17.067 -0.021,103.682 -84.088,187.717 -187.771,187.696 -52.657,-0.01 -102.888,-22.135 -138.442,-60.976 l 75.605,-25.207 c 8.954,-2.979 13.799,-12.652 10.82,-21.606 -2.979,-8.954 -12.652,-13.799 -21.606,-10.82 l -102.4,34.133 c -6.99,2.328 -11.697,8.88 -11.674,16.247 v 102.4 c 0,9.426 7.641,17.067 17.067,17.067 9.426,0 17.067,-7.641 17.067,-17.067 v -62.345 c 87.866,85.067 228.056,82.798 313.122,-5.068 40.09,-41.409 62.455,-96.818 62.344,-154.454 0.002,-9.426 -7.639,-17.067 -17.065,-17.067 z"
   id="path8"
   style="fill:#707070;fill-opacity:1;stroke:#707070;stroke-width:20;stroke-miterlimit:4;stroke-dasharray:none;stroke-opacity:1"
   inkscape:connector-curvature="0" />
	</g>
</g>
<g
   id="g14">
</g>
<g
   id="g16">
</g>
<g
   id="g18">
</g>
<g
   id="g20">
</g>
<g
   id="g22">
</g>
<g
   id="g24">
</g>
<g
   id="g26">
</g>
<g
   id="g28">
</g>
<g
   id="g30">
</g>
<g
   id="g32">
</g>
<g
   id="g34">
</g>
<g
   id="g36">
</g>
<g
   id="g38">
</g>
<g
   id="g40">
</g>
<g
   id="g42">
</g>
</svg>