<?xml version="1.0" encoding="UTF-8" standalone="no"?>
<svg
   xmlns:dc="http://purl.org/dc/elements/1.1/"
   xmlns:cc="http://creativecommons.org/ns#"
   xmlns:rdf="http://www.w3.org/1999/02/22-rdf-syntax-ns#"
   xmlns:svg="http://www.w3.org/2000/svg"
   xmlns="http://www.w3.org/2000/svg"
   xmlns:sodipodi="http://sodipodi.sourceforge.net/DTD/sodipodi-0.dtd"
   xmlns:inkscape="http://www.inkscape.org/namespaces/inkscape"
   version="1.1"
   viewBox="0 0 129 129"
   enable-background="new 0 0 129 129"
   id="svg10"
   sodipodi:docname="rename.svg"
   inkscape:version="0.92.4 (5da689c313, 2019-01-14)">
  <metadata
     id="metadata16">
    <rdf:RDF>
      <cc:Work
         rdf:about="">
        <dc:format>image/svg+xml</dc:format>
        <dc:type
           rdf:resource="http://purl.org/dc/dcmitype/StillImage" />
      </cc:Work>
    </rdf:RDF>
  </metadata>
  <defs
     id="defs14" />
  <sodipodi:namedview
     pagecolor="#ffffff"
     bordercolor="#666666"
     borderopacity="1"
     objecttolerance="10"
     gridtolerance="10"
     guidetolerance="10"
     inkscape:pageopacity="0"
     inkscape:pageshadow="2"
     inkscape:window-width="1920"
     inkscape:window-height="1013"
     id="namedview12"
     showgrid="false"
     inkscape:zoom="1.8294574"
     inkscape:cx="64.5"
     inkscape:cy="64.5"
     inkscape:window-x="-9"
     inkscape:window-y="-9"
     inkscape:window-maximized="1"
     inkscape:current-layer="svg10" />
  <g
     id="g8"
     style="fill:#707070;fill-opacity:1">
    <g
       id="g6"
       style="fill:#707070;fill-opacity:1">
      <path
         d="m119.2,114.3h-109.4c-2.3,0-4.1,1.9-4.1,4.1s1.9,4.1 4.1,4.1h109.5c2.3,0 4.1-1.9 4.1-4.1s-1.9-4.1-4.2-4.1z"
         id="path2"
         style="fill:#707070;fill-opacity:1" />
      <path
         d="m5.7,78l-.1,19.5c0,1.1 0.4,2.2 1.2,3 0.8,0.8 1.8,1.2 2.9,1.2l19.4-.1c1.1,0 2.1-0.4 2.9-1.2l67-67c1.6-1.6 1.6-4.2 0-5.9l-19.2-19.4c-1.6-1.6-4.2-1.6-5.9-1.77636e-15l-13.4,13.5-53.6,53.5c-0.7,0.8-1.2,1.8-1.2,2.9zm71.2-61.1l13.5,13.5-7.6,7.6-13.5-13.5 7.6-7.6zm-62.9,62.9l49.4-49.4 13.5,13.5-49.4,49.3-13.6,.1 .1-13.5z"
         id="path4"
         style="fill:#707070;fill-opacity:1" />
    </g>
  </g>
</svg>
