<?xml version="1.0" encoding="UTF-8" standalone="no"?>
<!-- Generator: Adobe Illustrator 16.0.0, SVG Export Plug-In . SVG Version: 6.00 Build 0)  -->

<svg
   xmlns:dc="http://purl.org/dc/elements/1.1/"
   xmlns:cc="http://creativecommons.org/ns#"
   xmlns:rdf="http://www.w3.org/1999/02/22-rdf-syntax-ns#"
   xmlns:svg="http://www.w3.org/2000/svg"
   xmlns="http://www.w3.org/2000/svg"
   xmlns:sodipodi="http://sodipodi.sourceforge.net/DTD/sodipodi-0.dtd"
   xmlns:inkscape="http://www.inkscape.org/namespaces/inkscape"
   version="1.1"
   id="Capa_1"
   x="0px"
   y="0px"
   width="401.71px"
   height="401.71px"
   viewBox="0 0 401.71 401.71"
   style="enable-background:new 0 0 401.71 401.71;"
   xml:space="preserve"
   sodipodi:docname="up.svg"
   inkscape:version="0.92.4 (5da689c313, 2019-01-14)"><metadata
   id="metadata41"><rdf:RDF><cc:Work
       rdf:about=""><dc:format>image/svg+xml</dc:format><dc:type
         rdf:resource="http://purl.org/dc/dcmitype/StillImage" /></cc:Work></rdf:RDF></metadata><defs
   id="defs39" /><sodipodi:namedview
   pagecolor="#ffffff"
   bordercolor="#666666"
   borderopacity="1"
   objecttolerance="10"
   gridtolerance="10"
   guidetolerance="10"
   inkscape:pageopacity="0"
   inkscape:pageshadow="2"
   inkscape:window-width="1920"
   inkscape:window-height="1013"
   id="namedview37"
   showgrid="false"
   inkscape:zoom="0.5874885"
   inkscape:cx="200.855"
   inkscape:cy="200.855"
   inkscape:window-x="-9"
   inkscape:window-y="-9"
   inkscape:window-maximized="1"
   inkscape:current-layer="Capa_1" />
<g
   id="g4"
   style="fill:#707070;fill-opacity:1">
	<path
   d="M342.602,115.914L251.24,6.28C247.812,2.096,243.144,0,237.254,0c-5.899,0-10.564,2.093-13.99,6.28l-91.363,109.634   c-4.947,5.905-5.802,12.371-2.568,19.414c3.427,7.044,8.951,10.566,16.562,10.566h54.821v182.723h-91.363   c-3.046,0-5.426,1.048-7.139,3.142l-45.683,54.816c-2.284,2.854-2.663,6.19-1.143,9.996c1.525,3.433,4.283,5.14,8.282,5.14h200.995   c2.67,0,4.853-0.852,6.567-2.562c1.711-1.715,2.566-3.901,2.566-6.571V145.897h54.819c7.615,0,13.131-3.521,16.563-10.566   C348.604,128.481,347.745,122.009,342.602,115.914z"
   id="path2"
   style="fill:#707070;fill-opacity:1" />
</g>
<g
   id="g6">
</g>
<g
   id="g8">
</g>
<g
   id="g10">
</g>
<g
   id="g12">
</g>
<g
   id="g14">
</g>
<g
   id="g16">
</g>
<g
   id="g18">
</g>
<g
   id="g20">
</g>
<g
   id="g22">
</g>
<g
   id="g24">
</g>
<g
   id="g26">
</g>
<g
   id="g28">
</g>
<g
   id="g30">
</g>
<g
   id="g32">
</g>
<g
   id="g34">
</g>
</svg>